<svg width="25" height="20" viewBox="0 0 20 20" fill="none" xmlns="http://www.w3.org/2000/svg">
<rect width="20" height="20" rx="10" fill="#024AD8"></rect>
<path d="M9.94195 14.13C9.28195 14.13 8.74195 13.96 8.32195 13.62C7.90195 13.2733 7.65529 12.7933 7.58195 12.18C7.56862 12.1 7.60529 12.06 7.69195 12.06H8.39195C8.46529 12.06 8.50529 12.0967 8.51195 12.17C8.54529 12.57 8.68862 12.8867 8.94195 13.12C9.20195 13.3467 9.53529 13.46 9.94195 13.46C10.442 13.46 10.8286 13.29 11.102 12.95C11.3753 12.61 11.512 12.1367 11.512 11.53C11.512 10.9233 11.382 10.4633 11.122 10.15C10.862 9.83667 10.492 9.68 10.012 9.68C9.64529 9.68 9.34195 9.77 9.10195 9.95C8.86195 10.1233 8.69195 10.3767 8.59195 10.71C8.57195 10.77 8.53195 10.8 8.47195 10.8H7.84195C7.76862 10.8 7.73529 10.7633 7.74195 10.69L7.97195 7.11C7.97862 7.03667 8.01862 7 8.09195 7H11.902C11.9753 7 12.012 7.03667 12.012 7.11V7.61C12.012 7.68333 11.9753 7.72 11.902 7.72H8.77195L8.64195 9.68C9.02862 9.22667 9.55862 9 10.232 9C10.6853 9 11.0786 9.10333 11.412 9.31C11.752 9.51 12.012 9.79667 12.192 10.17C12.3786 10.5367 12.472 10.9767 12.472 11.49C12.472 12.03 12.3686 12.4967 12.162 12.89C11.9553 13.2833 11.662 13.59 11.282 13.81C10.9086 14.0233 10.462 14.13 9.94195 14.13Z" fill="white"></path>
</svg>
